
<svg width="155" height="155" viewBox="0 0 155 155" fill="none" xmlns="http://www.w3.org/2000/svg">
<rect x="18.9453" y="99.7852" width="102" height="46" rx="12" fill="#CA12C5"/>
<path d="M40.9053 129.925C39.9853 129.925 39.1586 129.765 38.4253 129.445C37.7053 129.112 37.1386 128.658 36.7253 128.085C36.312 127.498 36.0986 126.825 36.0853 126.065H38.0253C38.092 126.718 38.3586 127.272 38.8253 127.725C39.3053 128.165 39.9986 128.385 40.9053 128.385C41.772 128.385 42.452 128.172 42.9453 127.745C43.452 127.305 43.7053 126.745 43.7053 126.065C43.7053 125.532 43.5586 125.098 43.2653 124.765C42.972 124.432 42.6053 124.178 42.1653 124.005C41.7253 123.832 41.132 123.645 40.3853 123.445C39.4653 123.205 38.7253 122.965 38.1653 122.725C37.6186 122.485 37.1453 122.112 36.7453 121.605C36.3586 121.085 36.1653 120.392 36.1653 119.525C36.1653 118.765 36.3586 118.092 36.7453 117.505C37.132 116.918 37.672 116.465 38.3653 116.145C39.072 115.825 39.8786 115.665 40.7853 115.665C42.092 115.665 43.1586 115.992 43.9853 116.645C44.8253 117.298 45.2986 118.165 45.4053 119.245H43.4053C43.3386 118.712 43.0586 118.245 42.5653 117.845C42.072 117.432 41.4186 117.225 40.6053 117.225C39.8453 117.225 39.2253 117.425 38.7453 117.825C38.2653 118.212 38.0253 118.758 38.0253 119.465C38.0253 119.972 38.1653 120.385 38.4453 120.705C38.7386 121.025 39.092 121.272 39.5053 121.445C39.932 121.605 40.5253 121.792 41.2853 122.005C42.2053 122.258 42.9453 122.512 43.5053 122.765C44.0653 123.005 44.5453 123.385 44.9453 123.905C45.3453 124.412 45.5453 125.105 45.5453 125.985C45.5453 126.665 45.3653 127.305 45.0053 127.905C44.6453 128.505 44.112 128.992 43.4053 129.365C42.6986 129.738 41.8653 129.925 40.9053 129.925ZM53.6636 118.625C54.4903 118.625 55.2369 118.805 55.9036 119.165C56.5703 119.512 57.0903 120.038 57.4636 120.745C57.8503 121.452 58.0436 122.312 58.0436 123.325V129.785H56.2436V123.585C56.2436 122.492 55.9703 121.658 55.4236 121.085C54.8769 120.498 54.1303 120.205 53.1836 120.205C52.2236 120.205 51.4569 120.505 50.8836 121.105C50.3236 121.705 50.0436 122.578 50.0436 123.725V129.785H48.2236V114.985H50.0436V120.385C50.4036 119.825 50.8969 119.392 51.5236 119.085C52.1636 118.778 52.8769 118.625 53.6636 118.625ZM62.8366 120.605C63.1566 119.978 63.6099 119.492 64.1966 119.145C64.7966 118.798 65.5232 118.625 66.3766 118.625V120.505H65.8966C63.8566 120.505 62.8366 121.612 62.8366 123.825V129.785H61.0166V118.825H62.8366V120.605ZM78.4775 123.885C78.4775 124.232 78.4575 124.598 78.4175 124.985H69.6575C69.7242 126.065 70.0908 126.912 70.7575 127.525C71.4375 128.125 72.2575 128.425 73.2175 128.425C74.0042 128.425 74.6575 128.245 75.1775 127.885C75.7108 127.512 76.0842 127.018 76.2975 126.405H78.2575C77.9642 127.458 77.3775 128.318 76.4975 128.985C75.6175 129.638 74.5242 129.965 73.2175 129.965C72.1775 129.965 71.2442 129.732 70.4175 129.265C69.6042 128.798 68.9642 128.138 68.4975 127.285C68.0308 126.418 67.7975 125.418 67.7975 124.285C67.7975 123.152 68.0242 122.158 68.4775 121.305C68.9308 120.452 69.5642 119.798 70.3775 119.345C71.2042 118.878 72.1508 118.645 73.2175 118.645C74.2575 118.645 75.1775 118.872 75.9775 119.325C76.7775 119.778 77.3908 120.405 77.8175 121.205C78.2575 121.992 78.4775 122.885 78.4775 123.885ZM76.5975 123.505C76.5975 122.812 76.4442 122.218 76.1375 121.725C75.8308 121.218 75.4108 120.838 74.8775 120.585C74.3575 120.318 73.7775 120.185 73.1375 120.185C72.2175 120.185 71.4308 120.478 70.7775 121.065C70.1375 121.652 69.7708 122.465 69.6775 123.505H76.5975ZM90.3198 118.825L83.7198 134.945H81.8398L83.9998 129.665L79.5798 118.825H81.5998L85.0398 127.705L88.4398 118.825H90.3198ZM91.4694 124.265C91.4694 123.145 91.696 122.165 92.1494 121.325C92.6027 120.472 93.2227 119.812 94.0094 119.345C94.8094 118.878 95.696 118.645 96.6694 118.645C97.6294 118.645 98.4627 118.852 99.1694 119.265C99.876 119.678 100.403 120.198 100.749 120.825V118.825H102.589V129.785H100.749V127.745C100.389 128.385 99.8494 128.918 99.1294 129.345C98.4227 129.758 97.596 129.965 96.6494 129.965C95.676 129.965 94.796 129.725 94.0094 129.245C93.2227 128.765 92.6027 128.092 92.1494 127.225C91.696 126.358 91.4694 125.372 91.4694 124.265ZM100.749 124.285C100.749 123.458 100.583 122.738 100.249 122.125C99.916 121.512 99.4627 121.045 98.8894 120.725C98.3294 120.392 97.7094 120.225 97.0294 120.225C96.3494 120.225 95.7294 120.385 95.1694 120.705C94.6094 121.025 94.1627 121.492 93.8294 122.105C93.496 122.718 93.3294 123.438 93.3294 124.265C93.3294 125.105 93.496 125.838 93.8294 126.465C94.1627 127.078 94.6094 127.552 95.1694 127.885C95.7294 128.205 96.3494 128.365 97.0294 128.365C97.7094 128.365 98.3294 128.205 98.8894 127.885C99.4627 127.552 99.916 127.078 100.249 126.465C100.583 125.838 100.749 125.112 100.749 124.285Z" fill="white"/>
<path d="M3.85863 154.326L14.0704 136.223L11.6391 149.771L24.6422 154.118L3.85863 154.326Z" fill="#CA12C5"/>
<rect x="36.9453" y="16.7852" width="103" height="46" rx="12" fill="#A31BF1"/>
<path d="M68.6253 32.9452V46.7852H66.8053V36.4652L62.2053 46.7852H60.9253L56.3053 36.4452V46.7852H54.4853V32.9452H56.4453L61.5653 44.3852L66.6853 32.9452H68.6253ZM76.4919 46.9652C75.4652 46.9652 74.5319 46.7318 73.6919 46.2652C72.8652 45.7985 72.2119 45.1385 71.7319 44.2852C71.2652 43.4185 71.0319 42.4185 71.0319 41.2852C71.0319 40.1652 71.2719 39.1785 71.7519 38.3252C72.2452 37.4585 72.9119 36.7985 73.7519 36.3452C74.5919 35.8785 75.5319 35.6452 76.5719 35.6452C77.6119 35.6452 78.5519 35.8785 79.3919 36.3452C80.2319 36.7985 80.8919 37.4518 81.3719 38.3052C81.8652 39.1585 82.1119 40.1518 82.1119 41.2852C82.1119 42.4185 81.8585 43.4185 81.3519 44.2852C80.8585 45.1385 80.1852 45.7985 79.3319 46.2652C78.4785 46.7318 77.5319 46.9652 76.4919 46.9652ZM76.4919 45.3652C77.1452 45.3652 77.7585 45.2118 78.3319 44.9052C78.9052 44.5985 79.3652 44.1385 79.7119 43.5252C80.0719 42.9118 80.2519 42.1652 80.2519 41.2852C80.2519 40.4052 80.0785 39.6585 79.7319 39.0452C79.3852 38.4318 78.9319 37.9785 78.3719 37.6852C77.8119 37.3785 77.2052 37.2252 76.5519 37.2252C75.8852 37.2252 75.2719 37.3785 74.7119 37.6852C74.1652 37.9785 73.7252 38.4318 73.3919 39.0452C73.0585 39.6585 72.8919 40.4052 72.8919 41.2852C72.8919 42.1785 73.0519 42.9318 73.3719 43.5452C73.7052 44.1585 74.1452 44.6185 74.6919 44.9252C75.2385 45.2185 75.8385 45.3652 76.4919 45.3652ZM89.8448 35.6252C91.1782 35.6252 92.2582 36.0318 93.0848 36.8452C93.9115 37.6452 94.3248 38.8052 94.3248 40.3252V46.7852H92.5248V40.5852C92.5248 39.4918 92.2515 38.6585 91.7048 38.0852C91.1582 37.4985 90.4115 37.2052 89.4648 37.2052C88.5048 37.2052 87.7382 37.5052 87.1648 38.1052C86.6048 38.7052 86.3248 39.5785 86.3248 40.7252V46.7852H84.5048V35.8252H86.3248V37.3852C86.6848 36.8252 87.1715 36.3918 87.7848 36.0852C88.4115 35.7785 89.0982 35.6252 89.8448 35.6252ZM98.2378 34.0452C97.8911 34.0452 97.5978 33.9252 97.3578 33.6852C97.1178 33.4452 96.9978 33.1518 96.9978 32.8052C96.9978 32.4585 97.1178 32.1652 97.3578 31.9252C97.5978 31.6852 97.8911 31.5652 98.2378 31.5652C98.5711 31.5652 98.8511 31.6852 99.0778 31.9252C99.3178 32.1652 99.4378 32.4585 99.4378 32.8052C99.4378 33.1518 99.3178 33.4452 99.0778 33.6852C98.8511 33.9252 98.5711 34.0452 98.2378 34.0452ZM99.1178 35.8252V46.7852H97.2978V35.8252H99.1178ZM106.1 46.9652C105.26 46.9652 104.506 46.8252 103.84 46.5452C103.173 46.2518 102.646 45.8518 102.26 45.3452C101.873 44.8252 101.66 44.2318 101.62 43.5652H103.5C103.553 44.1118 103.806 44.5585 104.26 44.9052C104.726 45.2518 105.333 45.4252 106.08 45.4252C106.773 45.4252 107.32 45.2718 107.72 44.9652C108.12 44.6585 108.32 44.2718 108.32 43.8052C108.32 43.3252 108.106 42.9718 107.68 42.7452C107.253 42.5052 106.593 42.2718 105.7 42.0452C104.886 41.8318 104.22 41.6185 103.7 41.4052C103.193 41.1785 102.753 40.8518 102.38 40.4252C102.02 39.9852 101.84 39.4118 101.84 38.7052C101.84 38.1452 102.006 37.6318 102.34 37.1652C102.673 36.6985 103.146 36.3318 103.76 36.0652C104.373 35.7852 105.073 35.6452 105.86 35.6452C107.073 35.6452 108.053 35.9518 108.8 36.5652C109.546 37.1785 109.946 38.0185 110 39.0852H108.18C108.14 38.5118 107.906 38.0518 107.48 37.7052C107.066 37.3585 106.506 37.1852 105.8 37.1852C105.146 37.1852 104.626 37.3252 104.24 37.6052C103.853 37.8852 103.66 38.2518 103.66 38.7052C103.66 39.0652 103.773 39.3652 104 39.6052C104.24 39.8318 104.533 40.0185 104.88 40.1652C105.24 40.2985 105.733 40.4518 106.36 40.6252C107.146 40.8385 107.786 41.0518 108.28 41.2652C108.773 41.4652 109.193 41.7718 109.54 42.1852C109.9 42.5985 110.086 43.1385 110.1 43.8052C110.1 44.4052 109.933 44.9452 109.6 45.4252C109.266 45.9052 108.793 46.2852 108.18 46.5652C107.58 46.8318 106.886 46.9652 106.1 46.9652ZM118.109 35.6252C118.936 35.6252 119.682 35.8052 120.349 36.1652C121.016 36.5118 121.536 37.0385 121.909 37.7452C122.296 38.4518 122.489 39.3118 122.489 40.3252V46.7852H120.689V40.5852C120.689 39.4918 120.416 38.6585 119.869 38.0852C119.322 37.4985 118.576 37.2052 117.629 37.2052C116.669 37.2052 115.902 37.5052 115.329 38.1052C114.769 38.7052 114.489 39.5785 114.489 40.7252V46.7852H112.669V31.9852H114.489V37.3852C114.849 36.8252 115.342 36.3918 115.969 36.0852C116.609 35.7785 117.322 35.6252 118.109 35.6252Z" fill="white"/>
<path d="M24.8095 7.85062L45.2165 11.7944L31.5963 13.7852L31.5975 27.4955L24.8095 7.85062Z" fill="#A31BF1"/>
</svg>
