<svg width="206" height="96" viewBox="0 0 206 96" fill="none" xmlns="http://www.w3.org/2000/svg">
<path d="M0 0H158C165.432 0 169.148 0 172.257 0.492467C189.373 3.20333 202.797 16.6269 205.508 33.7426C206 36.8519 206 40.568 206 48C206 55.432 206 59.1481 205.508 62.2574C202.797 79.3731 189.373 92.7967 172.257 95.5075C169.148 96 165.432 96 158 96H80C42.2876 96 23.4315 96 11.7157 84.2843C0 72.5685 0 53.7124 0 16V0Z" fill="#0064FB"/>
<path d="M33.696 41.176C35.2107 41.176 36.5333 41.5067 37.664 42.168C38.816 42.8293 39.6693 43.6613 40.224 44.664V41.464H43.168V59.384C43.168 60.984 42.8267 62.4027 42.144 63.64C41.4613 64.8987 40.48 65.88 39.2 66.584C37.9413 67.288 36.4693 67.64 34.784 67.64C32.48 67.64 30.56 67.096 29.024 66.008C27.488 64.92 26.5813 63.4373 26.304 61.56H29.184C29.504 62.6267 30.1653 63.48 31.168 64.12C32.1707 64.7813 33.376 65.112 34.784 65.112C36.384 65.112 37.6853 64.6107 38.688 63.608C39.712 62.6053 40.224 61.1973 40.224 59.384V55.704C39.648 56.728 38.7947 57.5813 37.664 58.264C36.5333 58.9467 35.2107 59.288 33.696 59.288C32.1387 59.288 30.72 58.904 29.44 58.136C28.1813 57.368 27.1893 56.2907 26.464 54.904C25.7387 53.5173 25.376 51.9387 25.376 50.168C25.376 48.376 25.7387 46.808 26.464 45.464C27.1893 44.0987 28.1813 43.0427 29.44 42.296C30.72 41.5493 32.1387 41.176 33.696 41.176ZM40.224 50.2C40.224 48.8773 39.9573 47.7253 39.424 46.744C38.8907 45.7627 38.1653 45.016 37.248 44.504C36.352 43.9707 35.36 43.704 34.272 43.704C33.184 43.704 32.192 43.96 31.296 44.472C30.4 44.984 29.6853 45.7307 29.152 46.712C28.6187 47.6933 28.352 48.8453 28.352 50.168C28.352 51.512 28.6187 52.6853 29.152 53.688C29.6853 54.6693 30.4 55.4267 31.296 55.96C32.192 56.472 33.184 56.728 34.272 56.728C35.36 56.728 36.352 56.472 37.248 55.96C38.1653 55.4267 38.8907 54.6693 39.424 53.688C39.9573 52.6853 40.224 51.5227 40.224 50.2ZM54.297 59.288C52.953 59.288 51.7477 59.064 50.681 58.616C49.6143 58.1467 48.7717 57.5067 48.153 56.696C47.5343 55.864 47.193 54.9147 47.129 53.848H50.137C50.2223 54.7227 50.6277 55.4373 51.353 55.992C52.0997 56.5467 53.0703 56.824 54.265 56.824C55.3743 56.824 56.249 56.5787 56.889 56.088C57.529 55.5973 57.849 54.9787 57.849 54.232C57.849 53.464 57.5077 52.8987 56.825 52.536C56.1423 52.152 55.0863 51.7787 53.657 51.416C52.3557 51.0747 51.289 50.7333 50.457 50.392C49.6463 50.0293 48.9423 49.5067 48.345 48.824C47.769 48.12 47.481 47.2027 47.481 46.072C47.481 45.176 47.7477 44.3547 48.281 43.608C48.8143 42.8613 49.5717 42.2747 50.553 41.848C51.5343 41.4 52.6543 41.176 53.913 41.176C55.8543 41.176 57.4223 41.6667 58.617 42.648C59.8117 43.6293 60.4517 44.9733 60.537 46.68H57.625C57.561 45.7627 57.1877 45.0267 56.505 44.472C55.8437 43.9173 54.9477 43.64 53.817 43.64C52.7717 43.64 51.9397 43.864 51.321 44.312C50.7023 44.76 50.393 45.3467 50.393 46.072C50.393 46.648 50.5743 47.128 50.937 47.512C51.321 47.8747 51.7903 48.1733 52.345 48.408C52.921 48.6213 53.7103 48.8667 54.713 49.144C55.9717 49.4853 56.9957 49.8267 57.785 50.168C58.5743 50.488 59.2463 50.9787 59.801 51.64C60.377 52.3013 60.6757 53.1653 60.697 54.232C60.697 55.192 60.4303 56.056 59.897 56.824C59.3637 57.592 58.6063 58.2 57.625 58.648C56.665 59.0747 55.5557 59.288 54.297 59.288ZM68.3598 43.864V54.2C68.3598 55.0533 68.5411 55.6613 68.9038 56.024C69.2664 56.3653 69.8958 56.536 70.7917 56.536H72.9358V59H70.3118C68.6904 59 67.4744 58.6267 66.6638 57.88C65.8531 57.1333 65.4478 55.9067 65.4478 54.2V43.864H63.1758V41.464H65.4478V37.048H68.3598V41.464H72.9358V43.864H68.3598ZM88.5473 43.864V54.2C88.5473 55.0533 88.7286 55.6613 89.0913 56.024C89.4539 56.3653 90.0833 56.536 90.9792 56.536H93.1233V59H90.4993C88.8779 59 87.6619 58.6267 86.8513 57.88C86.0406 57.1333 85.6353 55.9067 85.6353 54.2V43.864H83.3633V41.464H85.6353V37.048H88.5473V41.464H93.1233V43.864H88.5473ZM95.5635 50.168C95.5635 48.376 95.9262 46.808 96.6515 45.464C97.3768 44.0987 98.3688 43.0427 99.6275 42.296C100.908 41.5493 102.326 41.176 103.884 41.176C105.42 41.176 106.753 41.5067 107.884 42.168C109.014 42.8293 109.857 43.6613 110.412 44.664V41.464H113.356V59H110.412V55.736C109.836 56.76 108.972 57.6133 107.82 58.296C106.689 58.9573 105.366 59.288 103.852 59.288C102.294 59.288 100.886 58.904 99.6275 58.136C98.3688 57.368 97.3768 56.2907 96.6515 54.904C95.9262 53.5173 95.5635 51.9387 95.5635 50.168ZM110.412 50.2C110.412 48.8773 110.145 47.7253 109.612 46.744C109.078 45.7627 108.353 45.016 107.436 44.504C106.54 43.9707 105.548 43.704 104.46 43.704C103.372 43.704 102.38 43.96 101.484 44.472C100.588 44.984 99.8728 45.7307 99.3395 46.712C98.8062 47.6933 98.5395 48.8453 98.5395 50.168C98.5395 51.512 98.8062 52.6853 99.3395 53.688C99.8728 54.6693 100.588 55.4267 101.484 55.96C102.38 56.472 103.372 56.728 104.46 56.728C105.548 56.728 106.54 56.472 107.436 55.96C108.353 55.4267 109.078 54.6693 109.612 53.688C110.145 52.6853 110.412 51.5227 110.412 50.2ZM127.429 59L123.269 52.472L119.269 59H116.229L121.893 50.296L116.229 41.464H119.525L123.685 47.96L127.653 41.464H130.693L125.061 50.136L130.725 59H127.429ZM135.093 38.616C134.538 38.616 134.069 38.424 133.685 38.04C133.301 37.656 133.109 37.1867 133.109 36.632C133.109 36.0773 133.301 35.608 133.685 35.224C134.069 34.84 134.538 34.648 135.093 34.648C135.626 34.648 136.074 34.84 136.437 35.224C136.821 35.608 137.013 36.0773 137.013 36.632C137.013 37.1867 136.821 37.656 136.437 38.04C136.074 38.424 135.626 38.616 135.093 38.616ZM136.501 41.464V59H133.589V41.464H136.501ZM150.008 41.144C152.141 41.144 153.869 41.7947 155.192 43.096C156.515 44.376 157.176 46.232 157.176 48.664V59H154.296V49.08C154.296 47.3307 153.859 45.9973 152.984 45.08C152.109 44.1413 150.915 43.672 149.4 43.672C147.864 43.672 146.637 44.152 145.72 45.112C144.824 46.072 144.376 47.4693 144.376 49.304V59H141.464V41.464H144.376V43.96C144.952 43.064 145.731 42.3707 146.712 41.88C147.715 41.3893 148.813 41.144 150.008 41.144ZM169.165 41.176C170.679 41.176 172.002 41.5067 173.133 42.168C174.285 42.8293 175.138 43.6613 175.693 44.664V41.464H178.637V59.384C178.637 60.984 178.295 62.4027 177.613 63.64C176.93 64.8987 175.949 65.88 174.669 66.584C173.41 67.288 171.938 67.64 170.253 67.64C167.949 67.64 166.029 67.096 164.493 66.008C162.957 64.92 162.05 63.4373 161.773 61.56H164.653C164.973 62.6267 165.634 63.48 166.637 64.12C167.639 64.7813 168.845 65.112 170.253 65.112C171.853 65.112 173.154 64.6107 174.157 63.608C175.181 62.6053 175.693 61.1973 175.693 59.384V55.704C175.117 56.728 174.263 57.5813 173.133 58.264C172.002 58.9467 170.679 59.288 169.165 59.288C167.607 59.288 166.189 58.904 164.909 58.136C163.65 57.368 162.658 56.2907 161.933 54.904C161.207 53.5173 160.845 51.9387 160.845 50.168C160.845 48.376 161.207 46.808 161.933 45.464C162.658 44.0987 163.65 43.0427 164.909 42.296C166.189 41.5493 167.607 41.176 169.165 41.176ZM175.693 50.2C175.693 48.8773 175.426 47.7253 174.893 46.744C174.359 45.7627 173.634 45.016 172.717 44.504C171.821 43.9707 170.829 43.704 169.741 43.704C168.653 43.704 167.661 43.96 166.765 44.472C165.869 44.984 165.154 45.7307 164.621 46.712C164.087 47.6933 163.821 48.8453 163.821 50.168C163.821 51.512 164.087 52.6853 164.621 53.688C165.154 54.6693 165.869 55.4267 166.765 55.96C167.661 56.472 168.653 56.728 169.741 56.728C170.829 56.728 171.821 56.472 172.717 55.96C173.634 55.4267 174.359 54.6693 174.893 53.688C175.426 52.6853 175.693 51.5227 175.693 50.2Z" fill="white"/>
</svg>
