<svg width="40" height="40" viewBox="0 0 40 40" fill="none" xmlns="http://www.w3.org/2000/svg">
<rect width="40" height="40" rx="8" fill="#F9DBAF"/>
<path d="M29 10.21C28.87 10.21 28.74 10.26 28.65 10.36L27.86 11.15C27.66 11.35 27.35 11.35 27.15 11.15L26.36 10.36C26.16 10.16 25.85 10.16 25.65 10.36L24.86 11.15C24.66 11.35 24.35 11.35 24.15 11.15L23.36 10.36C23.16 10.16 22.85 10.16 22.65 10.36L21.86 11.15C21.66 11.35 21.35 11.35 21.15 11.15L20.36 10.36C20.16 10.16 19.85 10.16 19.65 10.36L18.86 11.15C18.66 11.35 18.35 11.35 18.15 11.15L17.35 10.35C17.15 10.15 16.84 10.15 16.64 10.35L15.85 11.15C15.65 11.35 15.34 11.35 15.14 11.15L14.35 10.35C14.15 10.15 13.84 10.15 13.64 10.35L12.85 11.15C12.65 11.35 12.34 11.35 12.14 11.15L11.35 10.35C11.26 10.26 11.13 10.21 11 10.21V29.7999C11.13 29.7999 11.26 29.75 11.35 29.65L12.14 28.86C12.34 28.66 12.65 28.66 12.85 28.86L13.64 29.65C13.84 29.85 14.15 29.85 14.35 29.65L15.14 28.86C15.34 28.66 15.65 28.66 15.85 28.86L16.64 29.65C16.84 29.85 17.15 29.85 17.35 29.65L18.14 28.86C18.34 28.66 18.65 28.66 18.85 28.86L19.64 29.65C19.84 29.85 20.15 29.85 20.35 29.65L21.14 28.86C21.34 28.66 21.65 28.66 21.85 28.86L22.64 29.65C22.84 29.85 23.15 29.85 23.35 29.65L24.14 28.86C24.34 28.66 24.65 28.66 24.85 28.86L25.64 29.65C25.84 29.85 26.15 29.85 26.35 29.65L27.14 28.86C27.34 28.66 27.65 28.66 27.85 28.86L28.64 29.65C28.74 29.75 28.87 29.7999 28.99 29.7999V10.21H29ZM25 25H15C14.45 25 14 24.55 14 24C14 23.45 14.45 23 15 23H25C25.55 23 26 23.45 26 24C26 24.55 25.55 25 25 25ZM25 21H15C14.45 21 14 20.55 14 20C14 19.45 14.45 19 15 19H25C25.55 19 26 19.45 26 20C26 20.55 25.55 21 25 21ZM25 17H15C14.45 17 14 16.55 14 16C14 15.45 14.45 15 15 15H25C25.55 15 26 15.45 26 16C26 16.55 25.55 17 25 17Z" fill="black"/>
</svg>
