<svg width="120" height="120" viewBox="0 0 120 120" fill="none" xmlns="http://www.w3.org/2000/svg">
<rect width="120" height="120" rx="24" fill="#0179A6"/>
<path fill-rule="evenodd" clip-rule="evenodd" d="M46.0004 37.6001C44.5152 37.6001 43.0908 38.1901 42.0406 39.2403C40.9904 40.2905 40.4004 41.7149 40.4004 43.2001V82.4001L50.2004 76.8001L60.0004 82.4001L69.8004 76.8001L79.6004 82.4001V43.2001C79.6004 41.7149 79.0104 40.2905 77.9602 39.2403C76.91 38.1901 75.4856 37.6001 74.0004 37.6001H46.0004ZM53.0004 46.0001C51.8865 46.0001 50.8182 46.4426 50.0305 47.2302C49.2429 48.0179 48.8004 49.0862 48.8004 50.2001C48.8004 51.314 49.2429 52.3823 50.0305 53.1699C50.8182 53.9576 51.8865 54.4001 53.0004 54.4001C54.1143 54.4001 55.1826 53.9576 55.9702 53.1699C56.7579 52.3823 57.2004 51.314 57.2004 50.2001C57.2004 49.0862 56.7579 48.0179 55.9702 47.2302C55.1826 46.4426 54.1143 46.0001 53.0004 46.0001ZM70.38 46.8205C69.8549 46.2956 69.1429 46.0007 68.4004 46.0007C67.6579 46.0007 66.9459 46.2956 66.4208 46.8205L49.6208 63.6205C49.3534 63.8788 49.1401 64.1878 48.9933 64.5294C48.8466 64.871 48.7693 65.2384 48.7661 65.6102C48.7629 65.982 48.8337 66.3507 48.9745 66.6948C49.1153 67.0389 49.3232 67.3515 49.5861 67.6144C49.849 67.8773 50.1616 68.0852 50.5057 68.226C50.8498 68.3668 51.2185 68.4376 51.5903 68.4344C51.9621 68.4312 52.3295 68.3539 52.6711 68.2072C53.0127 68.0604 53.3217 67.8471 53.58 67.5797L70.38 50.7797C70.9049 50.2546 71.1998 49.5426 71.1998 48.8001C71.1998 48.0576 70.9049 47.3456 70.38 46.8205ZM67.0004 60.0001C65.8865 60.0001 64.8182 60.4426 64.0305 61.2302C63.2429 62.0179 62.8004 63.0862 62.8004 64.2001C62.8004 65.314 63.2429 66.3823 64.0305 67.1699C64.8182 67.9576 65.8865 68.4001 67.0004 68.4001C68.1143 68.4001 69.1826 67.9576 69.9702 67.1699C70.7579 66.3823 71.2004 65.314 71.2004 64.2001C71.2004 63.0862 70.7579 62.0179 69.9702 61.2302C69.1826 60.4426 68.1143 60.0001 67.0004 60.0001Z" fill="white"/>
</svg>
