<svg width="120" height="120" viewBox="0 0 120 120" fill="none" xmlns="http://www.w3.org/2000/svg">
<path d="M81.1937 57.5471L89.0437 49.6971L70.2938 30.9471L62.4437 38.7971L41.7438 18.1471C37.8438 14.2471 31.4938 14.2471 27.5938 18.1471L18.0938 27.6471C14.1938 31.5471 14.1938 37.8971 18.0938 41.7971L38.7438 62.4471L15.7438 85.4971C15.2438 85.9971 14.9938 86.5971 14.9938 87.2971V102.497C14.9938 103.897 16.0938 104.997 17.4938 104.997H32.6938C33.3438 104.997 33.9938 104.747 34.4438 104.247L57.5438 81.1471L78.1938 101.797C84.7938 108.397 91.9938 102.147 92.3438 101.797L101.844 92.2971C105.744 88.3971 105.744 82.0471 101.844 78.1471L81.1937 57.5471ZM45.8938 55.3471L25.1938 34.6971L34.6438 25.1971L40.9938 31.5471L38.6438 33.9971C36.6938 35.9471 36.6938 39.0971 38.6438 41.0471C40.5938 42.9971 43.7438 42.9971 45.6938 41.0471L48.0938 38.6471L55.3438 45.8971L45.8938 55.3471ZM85.2937 94.7971L64.6438 74.1471L74.1438 64.6471L81.3938 71.8971L78.9938 74.2971C77.0438 76.2471 77.0438 79.3971 78.9938 81.3471C80.9438 83.2971 84.0938 83.2971 86.0437 81.3471L88.4438 78.9471L94.7937 85.2971L85.2937 94.7971Z" fill="#A48AFB"/>
<path d="M103.544 35.1971C105.494 33.2471 105.494 30.0971 103.544 28.1471L91.8438 16.4471C89.4938 14.0971 86.2437 14.9971 84.7937 16.4471L75.6438 25.5971L94.3937 44.3471L103.544 35.1971Z" fill="#A48AFB"/>
</svg>
