<svg width="104" height="72" viewBox="0 0 104 72" fill="none" xmlns="http://www.w3.org/2000/svg">
<rect x="0.155029" width="103.69" height="72" rx="32" fill="#60D669"/>
<g clip-path="url(#clip0_1_482)">
<path d="M33.002 35.7608C33.0011 39.1216 33.8792 42.4031 35.549 45.2955L32.8423 55.178L42.9558 52.5262C45.7531 54.049 48.8872 54.8469 52.0721 54.8472H52.0805C62.5944 54.8472 71.153 46.2917 71.1575 35.7759C71.1596 30.6802 69.1769 25.8886 65.5747 22.2836C61.9732 18.679 57.1833 16.6928 52.0797 16.6904C41.5645 16.6904 33.0065 25.2455 33.0022 35.7608" fill="url(#paint0_linear_1_482)"/>
<path d="M32.3209 35.7544C32.3198 39.2361 33.2294 42.635 34.9588 45.631L32.155 55.8678L42.6312 53.1209C45.5177 54.6947 48.7676 55.5245 52.0746 55.5257H52.0831C62.9743 55.5257 71.8403 46.6625 71.845 35.7702C71.8468 30.4915 69.7929 25.5276 66.062 21.7935C62.3307 18.0598 57.3694 16.0022 52.0831 16C41.1901 16 32.3253 24.862 32.3209 35.7544ZM38.5598 45.115L38.1687 44.4941C36.5243 41.8795 35.6564 38.8581 35.6577 35.7557C35.6611 26.7022 43.0291 19.3364 52.0893 19.3364C56.4769 19.3383 60.6003 21.0487 63.7017 24.1519C66.8029 27.2555 68.5094 31.3811 68.5084 35.769C68.5043 44.8225 61.1361 52.1891 52.0831 52.1891H52.0766C49.1288 52.1876 46.2378 51.396 43.7166 49.9L43.1166 49.5442L36.8998 51.1741L38.5598 45.115Z" fill="url(#paint1_linear_1_482)"/>
<path d="M47.1439 27.4955C46.774 26.6734 46.3847 26.6568 46.0329 26.6423C45.7448 26.6299 45.4155 26.6309 45.0865 26.6309C44.7572 26.6309 44.2222 26.7548 43.7699 27.2485C43.3172 27.7428 42.0416 28.9372 42.0416 31.3665C42.0416 33.7958 43.811 36.1437 44.0577 36.4735C44.3047 36.8027 47.4737 41.9475 52.4926 43.9267C56.6637 45.5715 57.5126 45.2444 58.4178 45.1619C59.3233 45.0797 61.3394 43.9678 61.7507 42.8148C62.1623 41.6619 62.1623 40.6737 62.0389 40.4672C61.9155 40.2614 61.5862 40.1379 61.0924 39.891C60.5986 39.6442 58.1709 38.4495 57.7183 38.2847C57.2656 38.12 56.9364 38.0379 56.6071 38.5323C56.2778 39.0259 55.3323 40.1379 55.044 40.4672C54.7561 40.7972 54.4679 40.8383 53.9743 40.5913C53.4802 40.3436 51.8899 39.8228 50.0033 38.1408C48.5354 36.832 47.5444 35.2157 47.2563 34.7213C46.9682 34.2276 47.2254 33.96 47.473 33.714C47.6949 33.4927 47.967 33.1374 48.2141 32.8492C48.4603 32.5608 48.5425 32.3551 48.7071 32.0258C48.872 31.6961 48.7895 31.4078 48.6662 31.1608C48.5425 30.9138 47.583 28.4718 47.1439 27.4955Z" fill="white"/>
</g>
<defs>
<linearGradient id="paint0_linear_1_482" x1="1948.6" y1="3865.45" x2="1948.6" y2="16.6904" gradientUnits="userSpaceOnUse">
<stop stop-color="#1FAF38"/>
<stop offset="1" stop-color="#60D669"/>
</linearGradient>
<linearGradient id="paint1_linear_1_482" x1="2016.65" y1="4002.78" x2="2016.65" y2="16" gradientUnits="userSpaceOnUse">
<stop stop-color="#F9F9F9"/>
<stop offset="1" stop-color="white"/>
</linearGradient>
<clipPath id="clip0_1_482">
<rect width="39.6899" height="40" fill="white" transform="translate(32.155 16)"/>
</clipPath>
</defs>
</svg>
