<svg width="105" height="72" viewBox="0 0 105 72" fill="none" xmlns="http://www.w3.org/2000/svg">
<rect x="0.844971" width="104" height="72" rx="32" fill="white"/>
<g clip-path="url(#clip0_1_488)">
<path d="M63.47 16H42.22C37.0423 16 32.845 20.1973 32.845 25.375V46.625C32.845 51.8027 37.0423 56 42.22 56H63.47C68.6476 56 72.845 51.8027 72.845 46.625V25.375C72.845 20.1973 68.6476 16 63.47 16Z" fill="url(#paint0_radial_1_488)"/>
<path d="M63.47 16H42.22C37.0423 16 32.845 20.1973 32.845 25.375V46.625C32.845 51.8027 37.0423 56 42.22 56H63.47C68.6476 56 72.845 51.8027 72.845 46.625V25.375C72.845 20.1973 68.6476 16 63.47 16Z" fill="url(#paint1_radial_1_488)"/>
<path d="M52.8464 20.375C48.6029 20.375 48.0703 20.3936 46.4037 20.4694C44.7403 20.5456 43.6048 20.8089 42.6114 21.1953C41.5836 21.5944 40.7118 22.1283 39.8434 22.997C38.9742 23.8656 38.4403 24.7373 38.04 25.7647C37.6525 26.7584 37.3889 27.8944 37.314 29.557C37.2395 31.2238 37.22 31.7566 37.22 36.0002C37.22 40.2438 37.2387 40.7747 37.3143 42.4412C37.3909 44.1047 37.6542 45.2402 38.0403 46.2336C38.4397 47.2614 38.9736 48.1331 39.8423 49.0016C40.7106 49.8708 41.5823 50.4059 42.6093 50.805C43.6036 51.1914 44.7392 51.4547 46.4023 51.5309C48.069 51.6067 48.6012 51.6253 52.8445 51.6253C57.0884 51.6253 57.6193 51.6067 59.2859 51.5309C60.9493 51.4547 62.0861 51.1914 63.0803 50.805C64.1076 50.4059 64.9781 49.8708 65.8462 49.0016C66.7154 48.1331 67.2492 47.2614 67.6497 46.2341C68.0337 45.2402 68.2975 44.1044 68.3756 42.4416C68.4504 40.775 68.47 40.2438 68.47 36.0002C68.47 31.7566 68.4504 31.2241 68.3756 29.5573C68.2975 27.8939 68.0337 26.7586 67.6497 25.7652C67.2492 24.7373 66.7154 23.8656 65.8462 22.997C64.9772 22.128 64.1079 21.5941 63.0793 21.1955C62.0833 20.8089 60.9472 20.5455 59.2837 20.4694C57.617 20.3936 57.0864 20.375 52.8415 20.375H52.8464ZM51.4447 23.1908C51.8608 23.1902 52.325 23.1908 52.8464 23.1908C57.0184 23.1908 57.5128 23.2058 59.1603 23.2806C60.6837 23.3503 61.5106 23.6048 62.0614 23.8188C62.7906 24.1019 63.3104 24.4405 63.857 24.9875C64.4039 25.5344 64.7423 26.0552 65.0262 26.7844C65.2401 27.3344 65.495 28.1613 65.5643 29.6847C65.6392 31.3319 65.6554 31.8266 65.6554 35.9966C65.6554 40.1666 65.6392 40.6614 65.5643 42.3084C65.4947 43.8319 65.2401 44.6587 65.0262 45.2089C64.7431 45.9381 64.4039 46.4573 63.857 47.0039C63.3101 47.5508 62.7909 47.8892 62.0614 48.1725C61.5112 48.3873 60.6837 48.6413 59.1603 48.7109C57.5131 48.7858 57.0184 48.802 52.8464 48.802C48.6742 48.802 48.1797 48.7858 46.5326 48.7109C45.0092 48.6406 44.1823 48.3861 43.6311 48.1722C42.902 47.8889 42.3811 47.5505 41.8342 47.0036C41.2873 46.4567 40.9489 45.9372 40.665 45.2077C40.4511 44.6575 40.1962 43.8306 40.1268 42.3072C40.052 40.66 40.037 40.1653 40.037 35.9927C40.037 31.82 40.052 31.328 40.1268 29.6808C40.1965 28.1573 40.4511 27.3305 40.665 26.7797C40.9483 26.0505 41.2873 25.5297 41.8343 24.9828C42.3814 24.4359 42.902 24.0973 43.6312 23.8136C44.182 23.5988 45.0092 23.3448 46.5326 23.2748C47.974 23.2097 48.5326 23.1902 51.4447 23.1869V23.1908ZM61.187 25.7852C60.1518 25.7852 59.312 26.6242 59.312 27.6595C59.312 28.6947 60.1518 29.5345 61.187 29.5345C62.2222 29.5345 63.062 28.6947 63.062 27.6595C63.062 26.6244 62.2222 25.7845 61.187 25.7845V25.7852ZM52.8464 27.9759C48.4151 27.9759 44.8223 31.5688 44.8223 36.0002C44.8223 40.4316 48.4151 44.0227 52.8464 44.0227C57.2778 44.0227 60.8693 40.4316 60.8693 36.0002C60.8693 31.5689 57.2775 27.9759 52.8461 27.9759H52.8464ZM52.8464 30.7917C55.7228 30.7917 58.0548 33.1234 58.0548 36.0002C58.0548 38.8766 55.7228 41.2086 52.8464 41.2086C49.97 41.2086 47.6381 38.8766 47.6381 36.0002C47.6381 33.1234 49.9698 30.7917 52.8464 30.7917Z" fill="white"/>
</g>
<defs>
<radialGradient id="paint0_radial_1_488" cx="0" cy="0" r="1" gradientUnits="userSpaceOnUse" gradientTransform="translate(43.47 59.0808) rotate(-90) scale(39.643 36.8711)">
<stop stop-color="#FFDD55"/>
<stop offset="0.1" stop-color="#FFDD55"/>
<stop offset="0.5" stop-color="#FF543E"/>
<stop offset="1" stop-color="#C837AB"/>
</radialGradient>
<radialGradient id="paint1_radial_1_488" cx="0" cy="0" r="1" gradientUnits="userSpaceOnUse" gradientTransform="translate(26.1448 18.8814) rotate(78.681) scale(17.7206 73.045)">
<stop stop-color="#3771C8"/>
<stop offset="0.128" stop-color="#3771C8"/>
<stop offset="1" stop-color="#6600FF" stop-opacity="0"/>
</radialGradient>
<clipPath id="clip0_1_488">
<rect width="40" height="40" fill="white" transform="translate(32.845 16)"/>
</clipPath>
</defs>
</svg>
