<svg width="105" height="72" viewBox="0 0 105 72" fill="none" xmlns="http://www.w3.org/2000/svg">
<rect x="0.844971" width="104" height="72" rx="32" fill="#0A66C2"/>
<path d="M64.5116 21C65.3957 21 66.2435 21.3512 66.8687 21.9763C67.4938 22.6014 67.845 23.4493 67.845 24.3333V47.6667C67.845 48.5507 67.4938 49.3986 66.8687 50.0237C66.2435 50.6488 65.3957 51 64.5116 51H41.1783C40.2942 51 39.4464 50.6488 38.8213 50.0237C38.1962 49.3986 37.845 48.5507 37.845 47.6667V24.3333C37.845 23.4493 38.1962 22.6014 38.8213 21.9763C39.4464 21.3512 40.2942 21 41.1783 21H64.5116ZM63.6783 46.8333V38C63.6783 36.559 63.1059 35.177 62.0869 34.1581C61.068 33.1391 59.686 32.5667 58.245 32.5667C56.8283 32.5667 55.1783 33.4333 54.3783 34.7333V32.8833H49.7283V46.8333H54.3783V38.6167C54.3783 37.3333 55.4116 36.2833 56.695 36.2833C57.3138 36.2833 57.9073 36.5292 58.3449 36.9668C58.7825 37.4043 59.0283 37.9978 59.0283 38.6167V46.8333H63.6783ZM44.3116 30.2667C45.0542 30.2667 45.7664 29.9717 46.2915 29.4466C46.8166 28.9215 47.1116 28.2093 47.1116 27.4667C47.1116 25.9167 45.8616 24.65 44.3116 24.65C43.5646 24.65 42.8482 24.9468 42.32 25.475C41.7917 26.0032 41.495 26.7196 41.495 27.4667C41.495 29.0167 42.7616 30.2667 44.3116 30.2667ZM46.6283 46.8333V32.8833H42.0116V46.8333H46.6283Z" fill="white"/>
</svg>
