<svg width="121" height="120" viewBox="0 0 121 120" fill="none" xmlns="http://www.w3.org/2000/svg">
<path d="M61.8333 54.5C50.4833 51.55 46.8333 48.5 46.8333 43.75C46.8333 38.3 51.8833 34.5 60.3333 34.5C67.4333 34.5 70.9833 37.2 72.2833 41.5C72.8833 43.5 74.5333 45 76.6333 45H78.1333C81.4333 45 83.7833 41.75 82.6333 38.65C80.5333 32.75 75.6333 27.85 67.8333 25.95V22.5C67.8333 18.35 64.4833 15 60.3333 15C56.1833 15 52.8333 18.35 52.8333 22.5V25.8C43.1333 27.9 35.3333 34.2 35.3333 43.85C35.3333 55.4 44.8833 61.15 58.8333 64.5C71.3333 67.5 73.8333 71.9 73.8333 76.55C73.8333 80 71.3833 85.5 60.3333 85.5C52.0833 85.5 47.8333 82.55 46.1833 78.35C45.4333 76.4 43.7333 75 41.6833 75H40.2833C36.9333 75 34.5833 78.4 35.8333 81.5C38.6833 88.45 45.3333 92.55 52.8333 94.15V97.5C52.8333 101.65 56.1833 105 60.3333 105C64.4833 105 67.8333 101.65 67.8333 97.5V94.25C77.5833 92.4 85.3333 86.75 85.3333 76.5C85.3333 62.3 73.1833 57.45 61.8333 54.5Z" fill="#F5975B"/>
</svg>
