<svg width="120" height="120" viewBox="0 0 120 120" fill="none" xmlns="http://www.w3.org/2000/svg">
<rect width="120" height="120" rx="24" fill="#0179A6"/>
<path d="M37.3671 79.3201L59.7671 56.9201L56.5004 53.6068L54.8204 55.2634C54.6045 55.4797 54.3481 55.6514 54.0659 55.7684C53.7836 55.8855 53.481 55.9458 53.1754 55.9458C52.8698 55.9458 52.5672 55.8855 52.2849 55.7684C52.0027 55.6514 51.7463 55.4797 51.5304 55.2634L49.8737 53.6068C49.6574 53.3909 49.4858 53.1345 49.3687 52.8522C49.2516 52.57 49.1914 52.2674 49.1914 51.9618C49.1914 51.6562 49.2516 51.3536 49.3687 51.0713C49.4858 50.789 49.6574 50.5326 49.8737 50.3168L63.0804 37.1101C63.2963 36.8938 63.5527 36.7222 63.8349 36.6051C64.1172 36.488 64.4198 36.4277 64.7254 36.4277C65.031 36.4277 65.3336 36.488 65.6159 36.6051C65.8981 36.7222 66.1545 36.8938 66.3704 37.1101L68.0271 38.7668C68.9371 39.6768 68.9371 41.1468 68.0271 42.0568L66.3704 43.6668L69.6837 47.0034C69.8996 46.7871 70.156 46.6155 70.4383 46.4984C70.7206 46.3813 71.0231 46.3211 71.3287 46.3211C71.6343 46.3211 71.9369 46.3813 72.2192 46.4984C72.5015 46.6155 72.7579 46.7871 72.9737 47.0034C73.8837 47.9134 73.8837 49.4068 72.9737 50.3168L76.2637 53.6068L77.9204 51.9501C78.8304 51.0401 80.3237 51.0401 81.2337 51.9501L82.8671 53.6068C83.7771 54.5168 83.7771 56.0101 82.8671 56.9201L69.6837 70.1034C68.7737 71.0134 67.2804 71.0134 66.3704 70.1034L64.7371 68.4701C64.5155 68.2548 64.3394 67.9973 64.2191 67.7127C64.0989 67.4282 64.0369 67.1224 64.0369 66.8134C64.0369 66.5045 64.0989 66.1987 64.2191 65.9142C64.3394 65.6296 64.5155 65.3721 64.7371 65.1568L66.3704 63.5001L63.0804 60.2101L40.6571 82.6334C40.4412 82.8497 40.1848 83.0214 39.9025 83.1384C39.6203 83.2555 39.3177 83.3158 39.0121 83.3158C38.7065 83.3158 38.4039 83.2555 38.1216 83.1384C37.8393 83.0214 37.5829 82.8497 37.3671 82.6334C36.4571 81.7234 36.4571 80.2301 37.3671 79.3201ZM78.6671 76.3334C79.9047 76.3334 81.0917 76.8251 81.9669 77.7003C82.8421 78.5754 83.3337 79.7624 83.3337 81.0001V83.3334H60.0004V81.0001C60.0004 79.7624 60.4921 78.5754 61.3672 77.7003C62.2424 76.8251 63.4294 76.3334 64.6671 76.3334H78.6671Z" fill="white"/>
</svg>
