<svg width="120" height="120" viewBox="0 0 120 120" fill="none" xmlns="http://www.w3.org/2000/svg">
<rect width="120" height="120" rx="24" fill="#0179A6"/>
<path d="M51.8028 81H68.1968C69.6671 81 71.1167 80.6525 72.4273 79.986C73.7379 79.3195 74.8725 78.3527 75.7387 77.1645C76.6048 75.9763 77.178 74.6003 77.4114 73.1486C77.6449 71.6968 77.532 70.2105 77.0821 68.8107L73.1014 56.43C72.3456 54.0785 70.863 52.0275 68.867 50.5725C66.871 49.1174 64.4648 48.3334 61.9948 48.3333H58.0048C55.5348 48.3334 53.1285 49.1174 51.1325 50.5725C49.1366 52.0275 47.6539 54.0785 46.8981 56.43L42.9174 68.8107C42.4675 70.2105 42.3547 71.6968 42.5881 73.1486C42.8216 74.6003 43.3947 75.9763 44.2609 77.1645C45.127 78.3527 46.2616 79.3195 47.5722 79.986C48.8828 80.6525 50.3324 81 51.8028 81ZM66.9998 39C65.4442 45.2222 63.1109 48.3333 59.9998 48.3333C56.8887 48.3333 54.5553 45.2222 52.9998 39H66.9998Z" stroke="white" stroke-width="4.66667" stroke-linecap="round" stroke-linejoin="round"/>
<path d="M64.6663 57.6666H58.833C57.9048 57.6666 57.0145 58.0353 56.3581 58.6917C55.7018 59.3481 55.333 60.2383 55.333 61.1666C55.333 62.0948 55.7018 62.9851 56.3581 63.6415C57.0145 64.2978 57.9048 64.6666 58.833 64.6666H61.1663C62.0946 64.6666 62.9848 65.0353 63.6412 65.6917C64.2976 66.3481 64.6663 67.2383 64.6663 68.1666C64.6663 69.0948 64.2976 69.9851 63.6412 70.6415C62.9848 71.2978 62.0946 71.6666 61.1663 71.6666H55.333M59.9997 55.3333V57.6666M59.9997 71.6666V73.9999" stroke="white" stroke-width="4.66667" stroke-linecap="round" stroke-linejoin="round"/>
</svg>
