<svg width="120" height="120" viewBox="0 0 120 120" fill="none" xmlns="http://www.w3.org/2000/svg">
<rect width="120" height="120" rx="24" fill="#581CA0"/>
<path fill-rule="evenodd" clip-rule="evenodd" d="M71.6663 36.6667C73.5229 36.6667 75.3033 37.4042 76.6161 38.717C77.9288 40.0298 78.6663 41.8102 78.6663 43.6667V81.0001C78.6661 81.4396 78.5417 81.87 78.3075 82.2419C78.0733 82.6138 77.7389 82.912 77.3427 83.1022C76.9465 83.2924 76.5047 83.3668 76.068 83.3169C75.6314 83.267 75.2177 83.0948 74.8747 82.8201L70.4997 79.3201L66.1247 82.8201C65.6765 83.1792 65.1116 83.3603 64.5381 83.3289C63.9647 83.2975 63.423 83.0557 63.0167 82.6497L59.9997 79.6327L56.9827 82.6497C56.5767 83.056 56.0351 83.2982 55.4617 83.3301C54.8882 83.3619 54.3232 83.1812 53.8747 82.8224L49.4997 79.3201L45.1247 82.8201C44.7816 83.0948 44.3679 83.267 43.9313 83.3169C43.4947 83.3668 43.0528 83.2924 42.6566 83.1022C42.2604 82.912 41.926 82.6138 41.6918 82.2419C41.4577 81.87 41.3333 81.4396 41.333 81.0001V43.6667C41.333 41.8102 42.0705 40.0298 43.3833 38.717C44.696 37.4042 46.4765 36.6667 48.333 36.6667H71.6663ZM59.9997 60.0001H52.9997C52.3808 60.0001 51.7873 60.2459 51.3498 60.6835C50.9122 61.1211 50.6663 61.7146 50.6663 62.3334C50.6663 62.9523 50.9122 63.5457 51.3498 63.9833C51.7873 64.4209 52.3808 64.6667 52.9997 64.6667H59.9997C60.6185 64.6667 61.212 64.4209 61.6496 63.9833C62.0872 63.5457 62.333 62.9523 62.333 62.3334C62.333 61.7146 62.0872 61.1211 61.6496 60.6835C61.212 60.2459 60.6185 60.0001 59.9997 60.0001ZM66.9997 50.6667H52.9997C52.405 50.6674 51.8329 50.8951 51.4005 51.3034C50.968 51.7117 50.7078 52.2696 50.6729 52.8633C50.6381 53.457 50.8312 54.0416 51.213 54.4977C51.5947 54.9537 52.1361 55.2468 52.7267 55.3171L52.9997 55.3334H66.9997C67.5944 55.3328 68.1664 55.105 68.5989 54.6968C69.0313 54.2885 69.2916 53.7305 69.3264 53.1368C69.3613 52.5431 69.1681 51.9585 68.7864 51.5025C68.4047 51.0464 67.8632 50.7533 67.2727 50.6831L66.9997 50.6667Z" fill="white"/>
</svg>
