<svg width="120" height="120" viewBox="0 0 120 120" fill="none" xmlns="http://www.w3.org/2000/svg">
<rect width="120" height="120" rx="24" fill="#0179A6"/>
<path fill-rule="evenodd" clip-rule="evenodd" d="M48.905 36.6667H71.095C73.7993 36.6667 75.1503 36.6667 76.2423 37.0471C77.2715 37.4128 78.2027 38.0104 78.9638 38.7938C79.7249 39.5771 80.2954 40.5251 80.6313 41.5644C81 42.6891 81 44.0797 81 46.8634V79.5394C81 81.5414 78.7017 82.6054 77.248 81.2754C76.8402 80.8986 76.3053 80.6893 75.75 80.6893C75.1947 80.6893 74.6598 80.8986 74.252 81.2754L73.125 82.3067C72.4105 82.9675 71.4732 83.3344 70.5 83.3344C69.5268 83.3344 68.5895 82.9675 67.875 82.3067C67.1605 81.646 66.2232 81.2791 65.25 81.2791C64.2768 81.2791 63.3395 81.646 62.625 82.3067C61.9105 82.9675 60.9732 83.3344 60 83.3344C59.0268 83.3344 58.0895 82.9675 57.375 82.3067C56.6605 81.646 55.7232 81.2791 54.75 81.2791C53.7768 81.2791 52.8395 81.646 52.125 82.3067C51.4105 82.9675 50.4732 83.3344 49.5 83.3344C48.5268 83.3344 47.5895 82.9675 46.875 82.3067L45.748 81.2754C45.3402 80.8986 44.8053 80.6893 44.25 80.6893C43.6947 80.6893 43.1598 80.8986 42.752 81.2754C41.2983 82.6054 39 81.5414 39 79.5394V46.8634C39 44.0797 39 42.6867 39.3687 41.5667C40.0687 39.4364 41.6903 37.7657 43.7577 37.0471C44.8497 36.6667 46.2007 36.6667 48.905 36.6667ZM67.14 51.8334C67.2932 51.6618 67.4111 51.4617 67.487 51.2446C67.5629 51.0274 67.5952 50.7974 67.5822 50.5678C67.5692 50.3381 67.5111 50.1132 67.4112 49.906C67.3113 49.6988 67.1716 49.5133 67 49.3601C66.8284 49.2069 66.6283 49.089 66.4112 49.0131C66.194 48.9372 65.964 48.9048 65.7343 48.9178C65.5047 48.9308 65.2798 48.9889 65.0726 49.0888C64.8654 49.1888 64.6799 49.3285 64.5267 49.5001L57.501 57.3727L55.471 55.1001C55.1608 54.7573 54.7274 54.5511 54.2657 54.5268C53.804 54.5024 53.3514 54.6617 53.0068 54.97C52.6621 55.2782 52.4535 55.7103 52.4264 56.1719C52.3994 56.6335 52.5561 57.087 52.8623 57.4334L56.1943 61.1667C56.3585 61.3506 56.5596 61.4978 56.7846 61.5985C57.0096 61.6993 57.2533 61.7513 57.4998 61.7513C57.7463 61.7513 57.9901 61.6993 58.215 61.5985C58.44 61.4978 58.6412 61.3506 58.8053 61.1667L67.14 51.8334ZM49.5 66.4167C49.0359 66.4167 48.5908 66.6011 48.2626 66.9293C47.9344 67.2575 47.75 67.7026 47.75 68.1667C47.75 68.6309 47.9344 69.076 48.2626 69.4042C48.5908 69.7324 49.0359 69.9167 49.5 69.9167H70.5C70.9641 69.9167 71.4092 69.7324 71.7374 69.4042C72.0656 69.076 72.25 68.6309 72.25 68.1667C72.25 67.7026 72.0656 67.2575 71.7374 66.9293C71.4092 66.6011 70.9641 66.4167 70.5 66.4167H49.5Z" fill="white"/>
</svg>
