<svg width="120" height="120" viewBox="0 0 120 120" fill="none" xmlns="http://www.w3.org/2000/svg">
<rect width="120" height="120" rx="24" fill="#0179A6"/>
<path d="M81.0003 48.3333H67.0003C66.3815 48.3333 65.788 48.5792 65.3504 49.0168C64.9128 49.4543 64.667 50.0478 64.667 50.6667V57.6667H60.0003V41.3333C60.0003 40.7145 59.7545 40.121 59.3169 39.6834C58.8793 39.2458 58.2858 39 57.667 39H39.0003C38.3815 39 37.788 39.2458 37.3504 39.6834C36.9128 40.121 36.667 40.7145 36.667 41.3333V78.6667C36.667 79.2855 36.9128 79.879 37.3504 80.3166C37.788 80.7542 38.3815 81 39.0003 81H81.0003C81.6192 81 82.2127 80.7542 82.6502 80.3166C83.0878 79.879 83.3337 79.2855 83.3337 78.6667V50.6667C83.3337 50.0478 83.0878 49.4543 82.6502 49.0168C82.2127 48.5792 81.6192 48.3333 81.0003 48.3333ZM50.667 46H55.3337V50.6667H50.667V46ZM46.0003 69.3333H41.3337V64.6667H46.0003V69.3333ZM46.0003 60H41.3337V55.3333H46.0003V60ZM46.0003 50.6667H41.3337V46H46.0003V50.6667ZM55.3337 69.3333H50.667V64.6667H55.3337V69.3333ZM55.3337 60H50.667V55.3333H55.3337V60ZM76.3337 69.3333H71.667V64.6667H76.3337V69.3333ZM76.3337 60H71.667V55.3333H76.3337V60Z" fill="white"/>
</svg>
